<?xml version="1.0" encoding="utf-8"?>
<!-- Generator: Adobe Illustrator 24.0.1, SVG Export Plug-In . SVG Version: 6.00 Build 0)  -->
<svg version="1.1" id="Capa_1" xmlns="http://www.w3.org/2000/svg" xmlns:xlink="http://www.w3.org/1999/xlink" x="0px" y="0px"
	 viewBox="0 0 512 512" style="enable-background:new 0 0 512 512;" xml:space="preserve">
<style type="text/css">
	.st0{fill:#4E9AE5;}
	.st1{fill:#FF644A;}
	.st2{fill:#E52D15;}
	.st3{fill:#FED130;}
	.st4{fill:#EFBE25;}
	.st5{fill:#FFE5B8;}
	.st6{fill:#77D057;}
	.st7{fill:#67BC44;}
	.st8{fill:#FD9727;}
	.st9{fill:#E57F23;}
	.st10{fill:#EDD0A6;}
	.st11{opacity:0.4;fill:#6C63FF;enable-background:new    ;}
</style>
<path class="st0" d="M376.3,151.9c-1.1,0-2.2-0.2-3.3-0.8c-3.8-1.8-5.3-6.4-3.5-10.1l27.7-56.7c1.8-3.8,6.4-5.3,10.1-3.5
	c3.8,1.8,5.3,6.4,3.5,10.1l-27.7,56.7C381.8,150.4,379.1,151.9,376.3,151.9z"/>
<path class="st1" d="M424.1,36.7L312.2,49.8c-2.5,0.3-3.4,3.5-1.3,5.1c53.5,39.2,114,67.6,178.3,83.8c2.5,0.6,4.4-2.1,3.1-4.2
	l-61.4-94.5C429.4,37.6,426.8,36.4,424.1,36.7z"/>
<path class="st2" d="M492.3,134.4l-61.4-94.5c-1.5-2.3-4.1-3.5-6.8-3.2l-22,2.6c-16.5,1.9-25.2,20.5-16.2,34.4l24.9,38.4
	c25.3,10.9,51.5,19.8,78.3,26.6C491.7,139.3,493.7,136.5,492.3,134.4z"/>
<circle class="st3" cx="356.5" cy="179.1" r="67.7"/>
<path class="st4" d="M356.5,111.4c-10.2,0-19.8,2.3-28.5,6.3c23.2,10.8,39.2,34.2,39.2,61.4s-16.1,50.7-39.2,61.4
	c8.7,4,18.3,6.3,28.5,6.3c37.4,0,67.7-30.3,67.7-67.7S393.9,111.4,356.5,111.4z"/>
<circle class="st5" cx="356.5" cy="179.1" r="46.8"/>
<g>
	<path class="st3" d="M356.5,194.1c-4.2,0-7.6,3.4-7.6,7.6v3.3c0,4.2,3.4,7.6,7.6,7.6s7.6-3.4,7.6-7.6v-3.3
		C364.1,197.5,360.7,194.1,356.5,194.1z"/>
	<path class="st3" d="M356.5,145.7c-4.2,0-7.6,3.4-7.6,7.6v3.3c0,4.2,3.4,7.6,7.6,7.6s7.6-3.4,7.6-7.6v-3.3
		C364.1,149,360.7,145.7,356.5,145.7z"/>
	<path class="st3" d="M341.5,179.1c0-4.2-3.4-7.6-7.6-7.6h-3.3c-4.2,0-7.6,3.4-7.6,7.6s3.4,7.6,7.6,7.6h3.3
		C338.1,186.7,341.5,183.3,341.5,179.1z"/>
	<path class="st3" d="M382.4,171.5h-3.3c-4.2,0-7.6,3.4-7.6,7.6s3.4,7.6,7.6,7.6h3.3c4.2,0,7.6-3.4,7.6-7.6
		C389.9,174.9,386.6,171.5,382.4,171.5z"/>
	<path class="st3" d="M343.6,155.5c-3-3-7.7-3-10.7,0c-3,3-3,7.7,0,10.7l2.3,2.3c1.5,1.5,3.4,2.2,5.3,2.2c1.9,0,3.9-0.7,5.3-2.2
		c3-3,3-7.7,0-10.7L343.6,155.5z"/>
	<path class="st3" d="M377.8,189.7c-3-3-7.7-3-10.7,0c-3,3-3,7.7,0,10.7l2.3,2.3c1.5,1.5,3.4,2.2,5.3,2.2s3.9-0.7,5.3-2.2
		c3-3,3-7.7,0-10.7L377.8,189.7z"/>
	<path class="st3" d="M372.5,170.7c1.9,0,3.9-0.7,5.3-2.2l2.3-2.3c3-3,3-7.7,0-10.7c-3-3-7.7-3-10.7,0l-2.3,2.3c-3,3-3,7.7,0,10.7
		C368.6,169.9,370.5,170.7,372.5,170.7z"/>
	<path class="st3" d="M335.2,189.7l-2.3,2.3c-3,3-3,7.7,0,10.7c1.5,1.5,3.4,2.2,5.3,2.2c1.9,0,3.9-0.7,5.3-2.2l2.3-2.3
		c3-3,3-7.7,0-10.7C342.9,186.8,338.1,186.8,335.2,189.7z"/>
</g>
<path class="st6" d="M217.8,201.3c-27.9-54.8-50.4-131.2-61.2-191.5c-0.3-1.9-3.1-1.9-3.4,0c-9.6,56.5-19.9,135.7-28.9,191.5H217.8z
	"/>
<path class="st7" d="M196,201.3L64.1,0.8c-1.1-1.7-3.7-0.4-3.1,1.5l64.4,199.1L196,201.3L196,201.3L196,201.3z"/>
<path class="st6" d="M187.7,201.3C158.8,176.2,61.3,94.4,22.5,96.7c-3.1,0.2-4.4,4-2,6c15.9,13.2,62.1,54,86.1,98.6H187.7z"/>
<path class="st7" d="M215.2,201.3c-13.9-53.8,7-130.4,14-153.3c0.9-3-2.3-5.4-5-3.9c-39.9,22.8-72.9,157.2-72.9,157.2L215.2,201.3
	L215.2,201.3L215.2,201.3z"/>
<path class="st8" d="M230.3,190.4c-44.9,0-85.8-2-116.8-5.2c-8.5-0.9-16.4,4.4-19,12.5C78,251,34.5,426.5,148.3,498.9
	c16.2,10.3,35.5,14.6,54.6,12.7l18.6-1.9c5.8-0.6,11.7-0.6,17.5,0l18.6,1.9c19.1,1.9,38.4-2.4,54.6-12.7
	c113.9-72.4,70.3-247.9,53.8-301.2c-2.5-8.2-10.5-13.4-19-12.5C316.1,188.4,275.2,190.4,230.3,190.4z"/>
<path id="SVGCleanerId_0" class="st9" d="M366.1,197.7c-2.5-8.2-10.5-13.4-19-12.5c-11.7,1.2-24.8,2.3-38.9,3.1
	c12.5,37.2,71.2,233.1-50.8,310.6c-7.5,4.8-15.8,8.3-24.3,10.4c2,0.1,4,0.2,5.9,0.4l18.6,1.9c19.1,1.9,38.4-2.4,54.6-12.7
	C426.1,426.5,382.5,251,366.1,197.7z"/>
<g>
	<path id="SVGCleanerId_0_1_" class="st9" d="M366.1,197.7c-2.5-8.2-10.5-13.4-19-12.5c-11.7,1.2-24.8,2.3-38.9,3.1
		c12.5,37.2,71.2,233.1-50.8,310.6c-7.5,4.8-15.8,8.3-24.3,10.4c2,0.1,4,0.2,5.9,0.4l18.6,1.9c19.1,1.9,38.4-2.4,54.6-12.7
		C426.1,426.5,382.5,251,366.1,197.7z"/>
</g>
<path class="st5" d="M385.1,358l-40.9-40.9l39.7-39.7c-0.1-1-0.3-2-0.4-3c-0.1-0.5-0.1-0.9-0.2-1.4c-0.1-0.9-0.3-1.9-0.4-2.8
	c-0.1-0.5-0.2-0.9-0.2-1.4c-0.5-3-1-5.9-1.5-8.8c-0.1-0.6-0.2-1.2-0.3-1.8c-0.1-0.8-0.3-1.5-0.4-2.3c-0.1-0.7-0.2-1.3-0.4-2
	c-0.1-0.7-0.3-1.4-0.4-2.1c-0.2-1.2-0.5-2.4-0.7-3.6c0,0,0,0,0,0L341,210.5h28.8c-1.3-4.8-2.6-9.1-3.8-12.8
	c-2.5-8.2-10.5-13.4-19-12.5c-31,3.2-71.9,5.2-116.8,5.2s-85.8-2-116.8-5.2c-8.5-0.9-16.4,4.4-19,12.5c-1.1,3.7-2.4,8-3.8,12.8H118
	l-2.9,3L82,246.6c0,0,0,0,0,0c-0.2,1.1-0.5,2.3-0.7,3.4c0,0.2-0.1,0.4-0.1,0.6c-0.2,1.1-0.4,2.3-0.7,3.4c0,0.2-0.1,0.3-0.1,0.5
	c-1.2,6.4-2.3,13-3.4,19.9c0,0,0,0,0,0c-0.2,1.4-0.4,2.8-0.6,4.2c0,0,0,0,0,0l38.6,38.6L74.2,358l-0.9-0.9l0,0
	c0.6,8.3,1.6,16.6,3,24.8l38.8,38.8l-19.9,19.9c0,0,0,0,0,0c1.7,3.4,3.6,6.7,5.6,9.9c0.2,0.4,0.4,0.7,0.7,1.1
	c0.6,0.9,1.2,1.9,1.8,2.8l0,0l22.8-22.8l40.9,40.9l-23.2,23.2c0,0,0,0,0,0c1.5,1,3.1,2.1,4.6,3.1c0,0,0,0,0,0c0,0,0,0,0,0
	c0.9,0.6,1.8,1.1,2.7,1.6c0.3,0.2,0.6,0.4,1,0.6c0.6,0.3,1.2,0.7,1.8,1c0.4,0.2,0.8,0.4,1.1,0.6c0.8,0.4,1.7,0.8,2.5,1.2l20.4-20.4
	l27.8,27.8l9.8-1l6.1-0.6c1.3-0.1,2.7-0.2,4-0.3l-36.8-36.8l40.9-40.9l40.9,40.9l-36.8,36.8l0,0c0.6,0,1.3,0.1,1.9,0.1
	c1.1,0.1,2.2,0.1,3.4,0.3l14.8,1.5l27.7-27.7l20.8,20.8c0,0,0,0,0,0c0.7-0.3,1.3-0.6,2-0.9c0.3-0.2,0.7-0.3,1-0.5
	c0.5-0.3,1.1-0.6,1.6-0.9c0.5-0.3,1-0.5,1.5-0.8c0.4-0.2,0.8-0.5,1.2-0.7c0.9-0.5,1.8-1.1,2.7-1.7c0,0,0,0,0,0c0,0,0,0,0,0
	c1.3-0.8,2.6-1.7,3.9-2.6l-23.7-23.7l40.9-40.9l21.7,21.7l1.8,1.8c3-4.5,5.7-9,8.1-13.7l-20.8-20.8l40.4-40.4c0.3-2,0.6-4,0.9-6
	c0-0.2,0.1-0.4,0.1-0.6c0.2-1.8,0.5-3.7,0.7-5.5c0-0.2,0-0.3,0-0.5c0.2-1.9,0.4-3.9,0.6-5.8c0,0,0-0.1,0-0.1c0.2-2,0.3-4.1,0.5-6.1
	L385.1,358z M374.1,265.3l-40.9,40.9l-40.9-40.9l40.9-40.9L374.1,265.3z M322.3,317.2l-3.1,3.1l0,0L281.4,358l-40.9-40.9l40.9-40.9
	L322.3,317.2z M324.7,210.5c-2,2.4-4,4.6-4,4.6l-39.3,39.3l-43.9-43.9L324.7,210.5L324.7,210.5z M270.5,265.3l-40.9,40.9l-40.9-40.9
	l40.9-40.9L270.5,265.3z M218.7,317.2L177.8,358l-40.9-40.9l40.9-40.9L218.7,317.2z M221.1,210.5c-5,5.3-9.8,10.5-9.8,10.5
	l-33.4,33.4l-43.9-43.9l0,0H221.1z M85.1,265.3l40.9-40.9l40.9,40.9L126,306.2L85.1,265.3z M126,409.8L85.1,369l40.9-40.9l40.9,40.9
	L126,409.8z M177.8,461.7l-40.9-40.9l40.9-40.9l40.9,40.9L177.8,461.7z M188.8,369l40.9-40.9l40.9,40.9l-40.9,40.9L188.8,369z
	 M281.4,461.7l-40.9-40.9l40.9-40.9l40.9,40.9L281.4,461.7z M333.3,409.8L292.4,369l33.2-33.3c0.3-0.2,0.7-0.5,1-0.8l6.7-6.7
	l40.9,40.9L333.3,409.8z"/>
<path class="st10" d="M342.2,185.7c-2.7,0.3-5.5,0.5-8.3,0.8c-0.3,0-0.6,0.1-0.9,0.1c-2.9,0.2-5.9,0.5-8.9,0.7c-0.2,0-0.5,0-0.7,0.1
	c-3.1,0.2-6.3,0.4-9.5,0.6c-0.2,0-0.4,0-0.6,0c-1.6,0.1-3.3,0.2-5,0.3c1.6,4.9,4.1,12.5,6.8,22.3h9.7c-2,2.4-4,4.6-4,4.6l-3.5,3.5
	c1.4,5.4,2.9,11.3,4.3,17.6l11.8-11.8l40.9,40.9l-40.9,40.9l-1.1-1.1c0.6,7.6,1,15.3,1.1,23.1l0,0l40.9,40.9l-40.9,40.9l-8-8
	c-1.5,5.7-3.2,11.2-5.1,16.7l2.2,2.2l-4.9,4.9c-11.6,28.7-30.5,54.4-60.1,73.2c-7.3,4.6-15.1,8-23.4,10.2l-0.3,0.3l0,0
	c0.6,0,1.3,0.1,1.9,0.1c0,0,0,0,0,0c1.1,0.1,2.2,0.1,3.2,0.2c0,0,0.1,0,0.1,0l14.8,1.5l27.7-27.7l20.8,20.8c0,0,0,0,0,0
	c0.7-0.3,1.3-0.6,2-0.9c0.2-0.1,0.3-0.2,0.5-0.3c0.2-0.1,0.3-0.2,0.5-0.2c0.5-0.3,1.1-0.6,1.6-0.9c0.5-0.3,1-0.5,1.5-0.8
	c0.4-0.2,0.8-0.5,1.2-0.7c0.9-0.5,1.8-1.1,2.7-1.7c0,0,0,0,0,0c0,0,0,0,0,0c0,0,0,0,0,0c1.3-0.8,2.6-1.7,3.9-2.6l-23.7-23.7
	l40.9-40.9l21.7,21.7l1.8,1.8c3-4.5,5.7-9,8.1-13.7l-20.8-20.8l40.4-40.4c0.3-2,0.6-4,0.9-6c0-0.2,0.1-0.4,0.1-0.6
	c0.2-1.8,0.5-3.7,0.7-5.5c0-0.2,0-0.3,0-0.5c0.2-1.9,0.4-3.9,0.6-5.8c0,0,0-0.1,0-0.1c0.2-2,0.3-4.1,0.5-6.1l-2.3,2.3l-40.9-40.9
	l39.7-39.7c-0.1-1-0.3-2-0.4-3c-0.1-0.5-0.1-0.9-0.2-1.4c-0.1-0.9-0.3-1.9-0.4-2.8c-0.1-0.5-0.2-0.9-0.2-1.4c-0.5-3-1-5.9-1.5-8.8
	c-0.1-0.6-0.2-1.2-0.3-1.8c-0.1-0.8-0.3-1.5-0.4-2.3c-0.1-0.7-0.2-1.3-0.4-2c-0.1-0.7-0.3-1.4-0.4-2.1c-0.2-1.2-0.5-2.4-0.7-3.6
	c0,0,0,0,0,0L341,210.5h28.8c-1.3-4.8-2.6-9.1-3.8-12.8c-2.2-7.1-8.6-12.1-15.8-12.6c-1-0.1-2.1-0.1-3.1,0.1c-1.3,0.1-2.6,0.3-4,0.4
	C342.8,185.6,342.5,185.6,342.2,185.7z"/>
<circle class="st11" cx="401.2" cy="434.8" r="76.8"/>
</svg>
