<?xml version="1.0" encoding="utf-8"?>
<!-- Generator: Adobe Illustrator 24.0.1, SVG Export Plug-In . SVG Version: 6.00 Build 0)  -->
<svg version="1.1" id="Capa_1" xmlns="http://www.w3.org/2000/svg" xmlns:xlink="http://www.w3.org/1999/xlink" x="0px" y="0px"
	 viewBox="0 0 512 512" style="enable-background:new 0 0 512 512;" xml:space="preserve">
<style type="text/css">
	.st0{fill:#E5F9F6;}
	.st1{fill:#D7E0DC;}
	.st2{fill:#FFA022;}
	.st3{fill:#FDC74F;}
	.st4{fill:#FFFFBB;}
	.st5{fill:#FFC988;}
	.st6{fill:#E57F23;}
	.st7{fill:#DFEDE7;}
	.st8{fill:#CBD1CF;}
	.st9{fill:#EDA524;}
	.st10{fill:#E0DC94;}
	.st11{fill:#772424;}
	.st12{fill:#FC502A;}
	.st13{fill:#E52D15;}
	.st14{opacity:0.4;fill:#6C63FF;enable-background:new    ;}
</style>
<path class="st0" d="M67.6,90l56.5,401.5c1.7,11.8,11.7,20.5,23.6,20.5h216.6c11.9,0,21.9-8.7,23.6-20.5L444.4,90
	c1-7.3-4.6-13.8-12-13.8H79.6C72.2,76.2,66.6,82.8,67.6,90z"/>
<path class="st1" d="M432.4,76.2H389l-59.9,425.7c-0.8,5.8-5.8,10.1-11.6,10.1h46.8c11.9,0,21.9-8.7,23.6-20.5L444.4,90
	C445.4,82.8,439.8,76.2,432.4,76.2z"/>
<path class="st2" d="M76.5,153.4l47.6,338.1c1.7,11.8,11.7,20.5,23.6,20.5h216.6c11.9,0,21.9-8.7,23.6-20.5l47.6-338.1H76.5z"/>
<circle class="st3" cx="186.4" cy="114.2" r="114.2"/>
<circle class="st4" cx="186.4" cy="114.2" r="85.5"/>
<g>
	<path class="st5" d="M173.3,351.9l-67.2-38.8c-2.6-1.5-3.5-4.9-2-7.5l38.8-67.2c1.5-2.6,4.9-3.5,7.5-2l67.2,38.8
		c2.6,1.5,3.5,4.9,2,7.5l-38.8,67.2C179.3,352.5,176,353.4,173.3,351.9z"/>
	<path class="st5" d="M259,447.5l-45.9-62.6c-1.8-2.5-1.3-5.9,1.2-7.7l62.6-45.9c2.5-1.8,5.9-1.3,7.7,1.2l45.9,62.6
		c1.8,2.5,1.3,5.9-1.2,7.7l-62.6,45.9C264.3,450.5,260.8,450,259,447.5z"/>
	<path class="st5" d="M299.9,280.3l-16.2-75.9c-0.6-3,1.3-5.9,4.2-6.5l75.9-16.2c3-0.6,5.9,1.3,6.5,4.2l16.2,75.9
		c0.6,3-1.3,5.9-4.2,6.5l-75.9,16.2C303.5,285.2,300.5,283.3,299.9,280.3z"/>
</g>
<path class="st6" d="M378.2,153.4l-49.1,348.5c-0.8,5.8-5.8,10.1-11.6,10.1h46.8c3.7,0,7.2-0.9,10.4-2.4c1.3-0.6,2.5-1.3,3.6-2.2
	c3.4-2.5,6.1-5.8,7.8-9.7c0.6-1.3,1-2.7,1.4-4.1c0.2-0.7,0.3-1.4,0.4-2.2l47.6-338.1L378.2,153.4L378.2,153.4z"/>
<path class="st2" d="M386.6,261.8l-14.3-67l-11,78l21-4.5C385.3,267.7,387.2,264.8,386.6,261.8z"/>
<path class="st7" d="M256,475.4c-55.4,0-104.7-7.5-136.9-19.1l5,35.2c1.7,11.8,11.7,20.5,23.6,20.5h216.6c11.9,0,21.9-8.7,23.6-20.5
	l5-35.2C360.7,467.9,311.4,475.4,256,475.4z"/>
<path class="st8" d="M333.6,470.1l-4.5,31.8c-0.8,5.8-5.8,10.1-11.6,10.1h46.8c0.7,0,1.3,0,2-0.1c0.1,0,0.3,0,0.4,0
	c0.6-0.1,1.3-0.1,1.9-0.3c0.1,0,0.2,0,0.3-0.1c0.6-0.1,1.1-0.2,1.7-0.4c0.1,0,0.2,0,0.3-0.1c0.6-0.2,1.2-0.4,1.8-0.6
	c0.1,0,0.3-0.1,0.4-0.1c0.6-0.2,1.2-0.5,1.7-0.7c1.3-0.6,2.5-1.3,3.6-2.2c0.5-0.4,1-0.8,1.5-1.2c0.1-0.1,0.3-0.2,0.4-0.4
	c0.3-0.3,0.7-0.6,1-1c0.1-0.1,0.3-0.3,0.4-0.4c0.4-0.5,0.9-0.9,1.2-1.4c0,0,0,0,0,0c0.4-0.5,0.8-1,1.1-1.5c0.1-0.2,0.2-0.3,0.3-0.5
	c0.3-0.4,0.5-0.8,0.7-1.2c0.1-0.2,0.2-0.3,0.3-0.5c0.3-0.6,0.6-1.1,0.8-1.7c0.6-1.3,1-2.7,1.4-4.1c0.2-0.7,0.3-1.4,0.4-2.2l5-35.2
	C376.9,462.1,356.7,466.8,333.6,470.1z"/>
<path class="st9" d="M79.1,153.4c16,43.7,58,75,107.3,75s91.3-31.2,107.3-75H79.1z"/>
<path class="st10" d="M110.4,153.4c14.2,27.5,42.9,46.3,75.9,46.3s61.7-18.8,75.9-46.3H110.4z"/>
<path class="st11" d="M312.5,117.5c-0.8,0-1.6-0.1-2.4-0.4c-4.1-1.3-6.3-5.7-5-9.8l7.5-23.3c0.8-2.7,7.4-24.6,26.5-34.7
	c11.9-6.3,25.8-6.7,41.2-1.2c4,1.4,6.1,5.9,4.7,9.9c-1.4,4-5.9,6.1-9.9,4.7c-11.2-4-20.8-3.9-28.7,0.3
	c-13.9,7.3-18.9,25.1-18.9,25.3c0,0.1-0.1,0.3-0.1,0.4l-7.6,23.5C318.8,115.4,315.8,117.5,312.5,117.5z"/>
<circle class="st12" cx="304.6" cy="134.3" r="50.5"/>
<path class="st13" d="M257.9,153.4c5.4,13.3,16.5,24.2,31.3,29c25.3,8.2,52.4-4.7,62.2-29H257.9z"/>
<g>
	<path class="st3" d="M186.3,55.8c-4.3,0-7.7,3.5-7.7,7.7v8.8c0,4.3,3.5,7.7,7.7,7.7s7.7-3.5,7.7-7.7v-8.8
		C194.1,59.3,190.6,55.8,186.3,55.8z"/>
	<path class="st3" d="M152.3,114.2c0-4.3-3.5-7.7-7.7-7.7h-8.8c-4.3,0-7.7,3.5-7.7,7.7s3.5,7.7,7.7,7.7h8.8
		C148.8,121.9,152.3,118.4,152.3,114.2z"/>
	<path class="st3" d="M236.9,106.4h-8.8c-4.3,0-7.7,3.5-7.7,7.7s3.5,7.7,7.7,7.7h8.8c4.3,0,7.7-3.5,7.7-7.7S241.2,106.4,236.9,106.4
		z"/>
	<path class="st3" d="M215.9,92.4c2,0,4-0.8,5.5-2.3l6.2-6.2c3-3,3-7.9,0-11c-3-3-7.9-3-11,0l-6.2,6.2c-3,3-3,7.9,0,11
		C211.9,91.6,213.9,92.4,215.9,92.4z"/>
	<path class="st3" d="M156.1,72.9c-3-3-7.9-3-11,0c-3,3-3,7.9,0,11l6.2,6.2c1.5,1.5,3.5,2.3,5.5,2.3s4-0.8,5.5-2.3c3-3,3-7.9,0-11
		L156.1,72.9z"/>
	<path class="st3" d="M186.3,148.2c-4.3,0-7.7,3.5-7.7,7.7v8.8c0,4.3,3.5,7.7,7.7,7.7s7.7-3.5,7.7-7.7V156
		C194.1,151.7,190.6,148.2,186.3,148.2z"/>
	<path class="st3" d="M151.3,138.2l-6.2,6.2c-3,3-3,7.9,0,11c1.5,1.5,3.5,2.3,5.5,2.3s4-0.8,5.5-2.3l6.2-6.2c3-3,3-7.9,0-11
		C159.2,135.2,154.3,135.2,151.3,138.2z"/>
	<path class="st3" d="M221.4,138.2c-3-3-7.9-3-11,0c-3,3-3,7.9,0,11l6.2,6.2c1.5,1.5,3.5,2.3,5.5,2.3s4-0.8,5.5-2.3c3-3,3-7.9,0-11
		L221.4,138.2z"/>
</g>
<circle class="st14" cx="407" cy="435.2" r="76.8"/>
</svg>
