<svg id="Capa_1" enable-background="new 0 0 512 512" height="512" viewBox="0 0 512 512" width="512" xmlns="http://www.w3.org/2000/svg"><g><g><g><path d="m451.657 403.461c30.97-41.027 49.343-92.096 49.343-147.461 0-135.31-109.69-245-245-245s-245 109.69-245 245c0 55.365 18.373 106.434 49.343 147.461z" fill="#814aa0"/></g></g><path d="m136.667 262.795c-3.371 0-6.705-.157-10-.448v114.233l2.838-1.69c2.165-1.29 4.642-1.971 7.162-1.971 2.521 0 4.998.681 7.163 1.971l2.837 1.689v-114.233c-3.296.292-6.63.449-10 .449z" fill="#fff"/><g><path d="m137 262.791c-.111 0-.222.004-.333.004-3.371 0-6.705-.157-10-.448v114.233l2.838-1.69c2.165-1.29 4.642-1.971 7.162-1.971.111 0 .222.009.333.011z" fill="#dff6fd"/></g><g><path d="m248.838 374.89c2.165-1.29 4.642-1.971 7.162-1.971s4.997.681 7.162 1.971l2.838 1.69v-152.669l-6.928 8.306c-.762.914-1.882 1.438-3.072 1.438s-2.31-.524-3.072-1.438l-6.928-8.306v152.669z" fill="#fff"/></g><g><path d="m256 233.655c-1.19 0-2.31-.524-3.072-1.438l-6.928-8.306v152.669l2.838-1.69c2.165-1.29 4.642-1.971 7.162-1.971z" fill="#dff6fd"/></g><g><path d="m99.492 444.461c42.447 35.295 96.989 56.539 156.508 56.539s114.061-21.244 156.508-56.539z" fill="#e30256"/></g><g><g><path d="m193.769 403.461-49.428-29.431c-4.729-2.816-10.619-2.816-15.348 0l-49.428 29.431z" fill="#dff6fd"/></g><path d="m144.341 374.031c-4.729-2.815-10.619-2.815-15.348 0l-49.428 29.431h31.231l41.487-24.702z" fill="#c8effe"/><g><path d="m29.454 151.462c-2.836 0-5.131 2.358-5.002 5.191 2.712 59.63 51.915 107.142 112.215 107.142s109.503-47.512 112.215-107.142c.129-2.833-2.166-5.191-5.002-5.191z" fill="#dff6fd"/><path d="m55.564 156.653c-.129-2.833 2.166-5.191 5.002-5.191h-31.112c-2.836 0-5.131 2.358-5.002 5.191 2.712 59.63 51.915 107.142 112.215 107.142 5.279 0 10.471-.372 15.556-1.077-53-7.343-94.184-51.655-96.659-106.065z" fill="#c8effe"/><path d="m136.667 248.795c42.818 0 79.256-27.487 92.245-66.128h-184.49c12.989 38.641 49.426 66.128 92.245 66.128z" fill="#fe5694"/><path d="m75.511 182.667h-31.089c12.989 38.642 49.426 66.128 92.244 66.128 5.29 0 10.482-.423 15.544-1.231-35.917-5.734-65.315-31.03-76.699-64.897z" fill="#fd3581"/></g><g fill="#fe93bb"><circle cx="167.5" cy="199.5" r="7.5"/><circle cx="142.5" cy="221.5" r="7.5"/><circle cx="113.5" cy="201.5" r="7.5"/></g></g><g><g><path d="m259.84 232.858 111.818-134.062c2.716-3.256.401-8.203-3.84-8.203h-223.637c-4.24 0-6.556 4.946-3.84 8.203l111.819 134.062c1.999 2.397 5.681 2.397 7.68 0z" fill="#dff6fd"/><path d="m249.96 124.356c.025-.449.04-.901.04-1.356 0-13.255-10.745-24-24-24s-24 10.745-24 24c0 .455.015.907.04 1.356z" fill="#fe5694"/><path d="m222.013 123.356c-.002-.119-.013-.236-.013-.356 0-9.685 5.74-18.024 14-21.816-3.045-1.399-6.43-2.184-10-2.184-13.255 0-24 10.745-24 24 0 .119.007.237.009.356z" fill="#fd3581"/><path d="m171.513 98.796c-2.716-3.256-.401-8.203 3.84-8.203h-31.172c-4.24 0-6.556 4.946-3.84 8.203l111.819 134.062c1.999 2.397 5.68 2.397 7.679 0l11.746-14.083z" fill="#c8effe"/><path d="m252.16 209.44c1.999 2.396 5.68 2.396 7.679 0l71.801-86.084h-151.281z" fill="#0ed290"/><path d="m211.719 123.356h-31.359l71.801 86.084c1.999 2.396 5.68 2.396 7.679 0l11.84-14.195z" fill="#00c285"/></g><g><path d="m313.102 403.461-49.428-29.431c-4.729-2.816-10.619-2.816-15.348 0l-49.428 29.431z" fill="#dff6fd"/></g><path d="m263.674 374.031c-4.729-2.815-10.619-2.815-15.348 0l-49.428 29.431h31.102l41.551-24.74z" fill="#c8effe"/><g fill="#05e39c"><circle cx="283.5" cy="143.5" r="7.5"/><circle cx="268.5" cy="170.5" r="7.5"/><circle cx="247.5" cy="136.5" r="7.5"/></g></g><g><path d="m425.416 119.461.584-1v-91.461c0-1.657-1.343-3-3-3h-14c-1.657 0-3 1.343-3 3v91.462l.389 1h19.027z" fill="#fe5694"/><path d="m416 27c0-1.657 1.343-3 3-3h-10c-1.657 0-3 1.343-3 3v91.462l.389 1h10l-.389-1z" fill="#fd3581"/><g><path d="m459 403.461v-280c0-2.761-2.239-5-5-5h-120c-2.761 0-5 2.239-5 5v280z" fill="#62dbfb"/></g><path d="m441 154h-94c-1.657 0-3 1.343-3 3v179.542l1 1.099v-.004c2.829.241 5.815.363 8.895.363 20.289 0 30.591-5.137 40.554-10.105 10.205-5.089 19.843-9.895 39.661-9.895 3.086 0 6.072.124 8.891.37l1-.912v-160.458c-.001-1.657-1.344-3-3.001-3z" fill="#fed402"/><path d="m347 154h12v-30.538c0-2.761 2.239-5 5-5h-30c-2.761 0-5 2.239-5 5v280h15v-246.462c0-1.657 1.343-3 3-3z" fill="#01d0fb"/><path d="m406 118.462h20v35.538h-20z" fill="#01d0fb"/><path d="m444 317.458c-3.014-.294-6.288-.458-9.891-.458-40.107 0-40.107 20-80.215 20-3.604 0-6.88-.164-9.895-.458v66.919h100v-86.003z" fill="#05e39c"/><path d="m374 334.869v-177.869c0-1.657 1.343-3 3-3h-30c-1.657 0-3 1.343-3 3v179.542c3.015.294 6.29.458 9.895.458 8.126 0 14.605-.821 20.105-2.131z" fill="#fac600"/><path d="m353.895 337c-3.604 0-6.88-.164-9.895-.458v66.919h30v-68.592c-5.5 1.31-11.979 2.131-20.105 2.131z" fill="#0ed290"/><g fill="#fff"><circle cx="414.5" cy="224.5" r="7.5"/><circle cx="392.5" cy="259.5" r="7.5"/><circle cx="420.5" cy="280.5" r="7.5"/></g></g><g><path d="m507 445.462h-502c-2.761 0-5-2.239-5-5v-33c0-2.761 2.239-5 5-5h502c2.761 0 5 2.239 5 5v33c0 2.761-2.239 5-5 5z" fill="#fe5694"/></g><g><path d="m45 425c-2.761 0-5-2.239-5-5v-17.538h-35c-2.761 0-5 2.239-5 5v33c0 2.761 2.239 5 5 5h502c2.761 0 5-2.239 5-5v-15.462z" fill="#fd3581"/></g></g></svg>