<?xml version="1.0" encoding="utf-8"?>
<!-- Generator: Adobe Illustrator 24.0.1, SVG Export Plug-In . SVG Version: 6.00 Build 0)  -->
<svg version="1.1" id="Layer_1" xmlns="http://www.w3.org/2000/svg" xmlns:xlink="http://www.w3.org/1999/xlink" x="0px" y="0px"
	 viewBox="0 0 512 512" style="enable-background:new 0 0 512 512;" xml:space="preserve">
<style type="text/css">
	.st0{fill:#FFC365;}
	.st1{fill:#FFB640;}
	.st2{fill:#FFA90F;}
	.st3{fill:#B5DCFF;}
	.st4{fill:#8BCAFF;}
	.st5{fill:#FC8900;}
	.st6{fill:#DBEDFF;}
	.st7{fill:#DD5CA2;}
	.st8{fill:#DA4093;}
	.st9{fill:#C3247D;}
	.st10{opacity:0.4;fill:#6C63FF;enable-background:new    ;}
</style>
<g>
	<path class="st0" d="M305.8,0c-58.1,0-105.3,46.4-106.6,104.2l4.4,3.7h98l21.5,99.8l4.2,3.3c48.5-10,85-52.9,85-104.4
		C412.4,47.7,364.7,0,305.8,0z"/>
	<g>
		<path class="st1" d="M324.6,1.6C318.5,0.6,312.2,0,305.8,0c-58.1,0-105.3,46.4-106.6,104.2l4.4,3.7h37.5l-4.4-3.7
			C237.9,52.8,275.4,10.4,324.6,1.6z"/>
	</g>
	<path class="st1" d="M305.8,30.9c-41,0-74.4,32.6-75.6,73.3l2.5,3.7h71.6l11.5,65.3l6.1,7.4c34.1-7.4,59.7-37.7,59.7-74
		C381.5,64.8,347.6,30.9,305.8,30.9z"/>
	<g>
		<path class="st2" d="M261.9,106.7c0-33.9,20.5-62.9,49.7-75.5c-1.9-0.1-3.8-0.2-5.8-0.2c-41,0-74.4,32.6-75.6,73.3l2.5,3.7h29.2
			C261.9,107.4,261.9,107.1,261.9,106.7z"/>
	</g>
	<path class="st3" d="M228.2,353.6H205l-2.5,3.2v112.1l2.7,3.5H228l2.8-3.5V356.8L228.2,353.6z"/>
	<path class="st4" d="M216.6,356.8l2.5-3.2H205l-2.5,3.2v112.1l2.7,3.5h14.1l-2.7-3.5L216.6,356.8z"/>
	<path class="st5" d="M374.9,137.5l-53.7-31l53.6-31c-2.1-4.7-4.7-9.2-7.7-13.4l-53.6,30.9V31.3c-2.5-0.3-5.1-0.4-7.7-0.4
		c-2.6,0-5.2,0.1-7.7,0.4v61.9l-53.6-30.9c-3,4.2-5.6,8.6-7.8,13.4l55.9,32.2h11.7l1.3,7.5l61.6,35.5
		C370.2,146.7,372.8,142.3,374.9,137.5z"/>
	<path class="st6" d="M112.5,174.7l4.2,5.9h73.1l40.4,17.8h75.6l15.5-21.1l-12-66c-0.8-4.2-4.4-7.2-8.6-7.2H132.6
		c-4.2,0-7.9,3-8.6,7.2L112.5,174.7z"/>
	<path class="st3" d="M156.7,180.6l11.1-76.4h-35.2c-4.2,0-7.9,3-8.6,7.2l-11.5,63.3l4.2,5.9H156.7z"/>
	<path class="st0" d="M161.9,174.9h16.4L117.7,8.5c-1.5-4-5.9-6.1-9.9-4.6c-4,1.5-6.1,5.9-4.6,9.9L161.9,174.9z"/>
	<path class="st6" d="M295,486.6c-0.9-0.5-1.7-0.8-2.5-1L242,471.3c-0.4-0.1-0.7-0.2-1.1-0.3l-51.1,14.4c-0.8,0.2-1.6,0.5-2.5,1
		c-10.3,5.5-8,22.2,1.6,25.6h100.8C301.9,512,306,492.8,295,486.6z"/>
	<path class="st3" d="M188.8,486.5c0.9-0.5,1.6-0.7,2.4-1l50.6-14.3c0,0,0.1,0,0.1,0c-8.3-2.3-16.7-3.5-25.2-3.5
		c-8.5,0-17.1,1.2-25.3,3.5l-50.6,14.3c-0.8,0.2-1.5,0.5-2.4,1c-11.2,5.9-7.2,25.5,5.1,25.5h50.5C181.6,512,177.6,492.4,188.8,486.5
		z"/>
	<path class="st7" d="M245.2,353.4c57.5-18.5,97.3-58.9,86.8-116.9l-10.7-59.1c-24.9,12.6-66.8,25.3-110.5,1.4
		c-37.2-20.3-73.1-14.1-98.3-4.1l-11.2,61.7c-10.6,58.2,29.4,98.4,86.8,116.9C206.7,359.4,226.6,359.4,245.2,353.4L245.2,353.4z"/>
	<path class="st8" d="M245.2,353.4c4.9-1.6,9.6-3.3,14.3-5.2c-40.2-3.9-67.6-24.6-85.4-45.6c-19.2-22.7-27.5-52.7-23.2-82.1l8-55.1
		c-17.5,0-33.4,4.2-46.4,9.4l-11.2,61.7c-10.6,58.2,29.4,98.4,86.8,116.9C206.7,359.4,226.6,359.4,245.2,353.4L245.2,353.4z"/>
	<path class="st5" d="M216.9,280.6l-41.6-114c-5.8-0.9-11.4-1.3-16.9-1.3l44,120.6c1.1,3.1,4.1,5.1,7.3,5.1c0.9,0,1.8-0.2,2.6-0.5
		C216.3,289,218.4,284.6,216.9,280.6L216.9,280.6z"/>
	<circle class="st8" cx="260.6" cy="278.7" r="20.3"/>
	<path class="st9" d="M258.3,278.7c0-8,4.6-14.9,11.3-18.2c-2.7-1.4-5.8-2.1-9-2.1c-11.2,0-20.3,9.1-20.3,20.3s9.1,20.3,20.3,20.3
		c3.2,0,6.3-0.8,9-2.1C262.9,293.6,258.3,286.7,258.3,278.7L258.3,278.7z"/>
	<g>
		<path class="st8" d="M232.5,238.7h-4.6c-4.3,0-7.7-3.5-7.7-7.7s3.5-7.7,7.7-7.7h4.6c4.3,0,7.7,3.5,7.7,7.7
			C240.2,235.3,236.7,238.7,232.5,238.7z"/>
	</g>
</g>
<circle class="st10" cx="320.7" cy="434.7" r="76.8"/>
</svg>
