<?xml version="1.0" encoding="utf-8"?>
<!-- Generator: Adobe Illustrator 24.0.1, SVG Export Plug-In . SVG Version: 6.00 Build 0)  -->
<svg version="1.1" id="Capa_1" xmlns="http://www.w3.org/2000/svg" xmlns:xlink="http://www.w3.org/1999/xlink" x="0px" y="0px"
	 viewBox="0 0 512 512" style="enable-background:new 0 0 512 512;" xml:space="preserve">
<style type="text/css">
	.st0{fill:#77D057;}
	.st1{fill:#68B543;}
	.st2{fill:#DFEDE7;}
	.st3{fill:#D7E0DC;}
	.st4{fill:#FC502A;}
	.st5{fill:#FDC74F;}
	.st6{fill:#FFFFBB;}
	.st7{fill:#B0EFFE;}
	.st8{fill:#FD9727;}
	.st9{fill:#E52D15;}
	.st10{opacity:0.4;fill:#6C63FF;enable-background:new    ;}
</style>
<path class="st0" d="M92.4,29.4c-3.5-3.2-1.1-9,3.7-8.7l22.8,1.4c36.2,2.2,60.6,21.7,60.7,21.8c4.4,8.8,8.2,18.2,11.4,27.7
	C150,76.1,110.3,45.5,92.4,29.4z"/>
<g>
	<path class="st1" d="M259.4,18.2l-21.4,8c-28.4,10.6-45.4,30.4-50.2,36.6c3.5,9.2,6.4,18.7,8.8,28.1c33.6-12.8,57.8-47.1,68.8-65.4
		C267.9,21.4,263.9,16.6,259.4,18.2z"/>
	<path class="st1" d="M207.9,166.7c-3.9,0-7.3-3-7.6-7c-2.2-26.1-12.4-113.9-53.4-145.9c-3.3-2.6-3.9-7.4-1.3-10.8
		c2.6-3.3,7.4-3.9,10.8-1.3c44.6,34.9,56.3,121.2,59.3,156.7c0.4,4.2-2.8,7.9-7,8.3C208.3,166.7,208.1,166.7,207.9,166.7z"/>
</g>
<path class="st2" d="M204.4,512h157.3c3.5,0,6.3-2.7,6.4-6.2l16.1-367.8c0.2-3.7-2.8-6.7-6.4-6.7H188.3c-3.7,0-6.6,3.1-6.4,6.7
	l16.1,367.8C198.1,509.3,200.9,512,204.4,512z"/>
<path class="st3" d="M377.7,131.3h-49.8L311.2,512h50.4c3.5,0,6.3-2.7,6.4-6.2l16.1-367.8C384.3,134.4,381.4,131.3,377.7,131.3z"/>
<path class="st4" d="M382.5,177l-14.4,328.9c-0.2,3.4-3,6.2-6.4,6.2H204.4c-3.4,0-6.3-2.7-6.4-6.2L183.5,177H382.5z"/>
<path class="st5" d="M230.3,192.3c1.6,1.8,4.3,1.9,6.1,0.3c26.4-25.4,28.8-67.4,4.8-95.7S175.3,64.1,145.9,86
	c-1.9,1.4-2.3,4.2-0.7,6L230.3,192.3z"/>
<path class="st6" d="M220.9,181.2c21.6-18.3,24.2-50.6,5.9-72.2s-50.6-24.2-72.2-5.9L220.9,181.2z"/>
<g>
	<path class="st5" d="M208.7,132.1c-2.2,0-4.3-0.9-5.8-2.7c-2.7-3.2-2.3-8.1,0.9-10.8l2.8-2.3c3.2-2.7,8.1-2.3,10.8,0.9
		s2.3,8.1-0.9,10.8l-2.8,2.3C212.2,131.5,210.4,132.1,208.7,132.1z"/>
	<path class="st5" d="M218.1,150.4c-0.2,0-0.4,0-0.6,0l-3.6-0.3c-4.2-0.3-7.4-4-7-8.3c0.3-4.2,4-7.4,8.3-7l3.6,0.3
		c4.2,0.3,7.4,4,7,8.3C225.4,147.4,222,150.4,218.1,150.4z"/>
	<path class="st5" d="M191.9,123.5c-0.2,0-0.4,0-0.6,0c-4.2-0.3-7.4-4-7-8.3l0.3-3.6c0.3-4.2,4-7.4,8.3-7c4.2,0.3,7.4,4,7,8.3
		l-0.3,3.6C199.2,120.5,195.8,123.5,191.9,123.5z"/>
</g>
<path class="st7" d="M419.2,38.3l-15-9.6c-2-1.3-4.7-0.7-6,1.3L304.4,177h31.5l84.6-132.7C421.9,42.3,421.3,39.6,419.2,38.3z"/>
<g>
	<path class="st8" d="M376.3,64.3l28.4,4.9l8.8-13.8c-0.6-0.3-1.3-0.5-2-0.6l-26.3-4.5L376.3,64.3z"/>
	<path class="st8" d="M385.7,99l8.9-13.9c-0.3-0.1-0.7-0.2-1-0.3l-27.3-4.7l-8.9,14L385.7,99z"/>
	<path class="st8" d="M375.5,114.9l-28.4-4.9l-8.9,14c0.3,0.1,0.6,0.2,0.9,0.2l27.5,4.7L375.5,114.9
		C375.5,114.9,375.5,114.9,375.5,114.9z"/>
	<path class="st8" d="M321.1,154.3l26.4,4.5l8.9-14l-28.4-4.9l-8.8,13.8C319.8,154,320.5,154.2,321.1,154.3z"/>
</g>
<path class="st9" d="M368.1,505.8L382.5,177h-56.6l-14.7,335h50.4c1.1,0,2.1-0.3,3-0.7C366.6,510.2,368,508.2,368.1,505.8z"/>
<path class="st2" d="M283,479.6c33.5,0,63.9-1.4,86.4-3.7l-1.3,29.9c-0.2,3.4-3,6.2-6.4,6.2H204.4c-3.4,0-6.3-2.7-6.4-6.2l-1.3-29.9
	C219.1,478.2,249.5,479.6,283,479.6z"/>
<path class="st3" d="M365.4,510.8c0.2-0.1,0.3-0.2,0.4-0.4c0,0,0.1-0.1,0.1-0.1c0.2-0.2,0.4-0.3,0.5-0.5c0,0,0.1-0.1,0.1-0.1
	c0.1-0.2,0.3-0.3,0.4-0.5c0-0.1,0.1-0.1,0.1-0.2c0.1-0.2,0.2-0.4,0.3-0.5c0,0,0-0.1,0.1-0.1c0.1-0.2,0.2-0.5,0.3-0.7
	c0-0.1,0-0.1,0.1-0.2c0.1-0.2,0.1-0.4,0.1-0.6c0-0.1,0-0.1,0-0.2c0-0.3,0.1-0.5,0.1-0.8l0,0l0.1-2.2l1.2-27.7
	c-15.6,1.6-35.1,2.8-56.7,3.3l-1.4,32.8h50.4c0.2,0,0.5,0,0.7,0c0.1,0,0.1,0,0.2,0c0.2,0,0.3-0.1,0.5-0.1c0.1,0,0.2,0,0.2-0.1
	c0.2,0,0.3-0.1,0.5-0.1c0.1,0,0.1,0,0.2-0.1c0.2-0.1,0.4-0.2,0.6-0.3c0.2-0.1,0.4-0.2,0.6-0.4C365.3,510.8,365.4,510.8,365.4,510.8z
	"/>
<circle class="st10" cx="140.9" cy="435.2" r="76.8"/>
</svg>
