<?xml version="1.0" encoding="utf-8"?>
<!-- Generator: Adobe Illustrator 24.0.1, SVG Export Plug-In . SVG Version: 6.00 Build 0)  -->
<svg version="1.1" id="Capa_1" xmlns="http://www.w3.org/2000/svg" xmlns:xlink="http://www.w3.org/1999/xlink" x="0px" y="0px"
	 viewBox="0 0 400 100" style="enable-background:new 0 0 400 100;" xml:space="preserve">
<style type="text/css">
	.st0{fill:#FFD15B;}
	.st1{fill:#FFC344;}
	.st2{fill:#FEB237;}
	.st3{fill:#DFF6FD;}
	.st4{fill:#CDC7BE;}
	.st5{fill:#C8EFFE;}
	.st6{fill:#FD4755;}
	.st7{fill:#FB2B3A;}
	.st8{fill:#FE646F;}
	.st9{fill:#FFFFFF;}
</style>
<g>
	<ellipse class="st0" cx="66.01" cy="14.69" rx="13.99" ry="14.69"/>
	<path class="st1" d="M66.01,0c-0.99,0-1.95,0.11-2.87,0.31c6.35,1.39,11.11,7.3,11.11,14.38s-4.77,12.98-11.11,14.38
		c0.93,0.2,1.89,0.31,2.87,0.31C73.74,29.38,80,22.8,80,14.69S73.74,0,66.01,0L66.01,0z"/>
	<g>
		<path class="st2" d="M66.01,3.76c-0.77,0-1.39,0.66-1.39,1.46v2.15c0,0.81,0.62,1.46,1.39,1.46s1.39-0.66,1.39-1.46V5.23
			C67.41,4.42,66.79,3.76,66.01,3.76z"/>
		<path class="st2" d="M71.11,11.05c0.36,0,0.71-0.14,0.99-0.43l1.44-1.52c0.54-0.57,0.54-1.5,0-2.07c-0.54-0.57-1.43-0.57-1.97,0
			l-1.44,1.52c-0.54,0.57-0.54,1.5,0,2.07C70.4,10.91,70.75,11.05,71.11,11.05z"/>
		<path class="st2" d="M75.26,13.48h-2.04c-0.77,0-1.39,0.66-1.39,1.46c0,0.81,0.62,1.46,1.39,1.46h2.04c0.77,0,1.39-0.66,1.39-1.46
			C76.66,14.13,76.03,13.48,75.26,13.48z"/>
		<path class="st2" d="M72.1,19.26c-0.54-0.57-1.43-0.57-1.97,0c-0.54,0.57-0.54,1.5,0,2.07l1.44,1.52
			c0.27,0.29,0.63,0.43,0.99,0.43c0.36,0,0.71-0.14,0.99-0.43c0.54-0.57,0.54-1.5,0-2.07L72.1,19.26z"/>
		<path class="st2" d="M60.46,7.04c-0.54-0.57-1.43-0.57-1.97,0s-0.54,1.5,0,2.07l1.44,1.52c0.27,0.29,0.63,0.43,0.99,0.43
			c0.36,0,0.71-0.14,0.99-0.43c0.54-0.57,0.54-1.5,0-2.07L60.46,7.04z"/>
	</g>
	<path class="st3" d="M74.36,62.36c-2.91,7.04-15.01,11.2-26.16,11.2s-22.88-3.26-26.16-11.2c-4.23-10.25,8.6-40.59,10.37-44.68
		c0.12-0.28,0.38-0.46,0.68-0.46h30.24c0.29,0,0.56,0.18,0.68,0.46C65.76,21.76,78.59,52.11,74.36,62.36L74.36,62.36z"/>
	<path class="st4" d="M46.69,35.89L37.25,5.02c-0.2-0.65-0.8-1.08-1.45-1.02L16.28,5.74c-0.77,0.07-1.34,0.78-1.27,1.58
		s0.74,1.4,1.51,1.34l18.41-1.65l9.1,29.76c0.19,0.62,0.74,1.02,1.33,1.02c0.14,0,0.28-0.02,0.42-0.07
		C46.51,37.49,46.92,36.66,46.69,35.89L46.69,35.89z"/>
	<path class="st1" d="M63.32,17.22H52.24c1.14,6.9,6.87,12.15,13.77,12.15c0.86,0,1.7-0.09,2.51-0.24
		c-2.05-5.64-3.93-10.07-4.53-11.46C63.87,17.4,63.61,17.22,63.32,17.22L63.32,17.22z"/>
	<path class="st5" d="M63.32,17.22h-5.27c0,0,15.1,34.14,10.57,45.14c-2.67,6.47-13.12,10.51-23.45,11.12
		c1.01,0.05,2.02,0.08,3.03,0.08c11.15,0,23.26-4.16,26.16-11.2c4.23-10.25-8.6-40.59-10.37-44.68
		C63.87,17.4,63.61,17.22,63.32,17.22L63.32,17.22z"/>
	<path class="st2" d="M66.01,29.38c0.86,0,1.7-0.09,2.51-0.24c-2.05-5.64-3.93-10.07-4.53-11.46c-0.12-0.28-0.38-0.46-0.68-0.46
		h-5.27c0,0,2.2,4.98,4.67,11.74C63.77,29.23,64.88,29.38,66.01,29.38L66.01,29.38z"/>
	<path class="st3" d="M65.99,98.79c0,0.67-0.52,1.21-1.16,1.21H31.56c-0.64,0-1.16-0.54-1.16-1.21c0-0.71,0.22-1.44,0.6-2.01
		c0.39-0.57,0.94-0.96,1.61-0.99c18.65-0.8,11.15-36.87,11.15-36.87h8.86c0,0-7.5,36.07,11.15,36.87c0.67,0.03,1.23,0.43,1.61,0.99
		C65.77,97.34,65.99,98.08,65.99,98.79z"/>
	<path class="st5" d="M65.39,96.77c-0.39-0.57-0.94-0.96-1.61-0.99c-18.65-0.8-11.15-36.87-11.15-36.87h-5.75
		c0,0-7.5,36.07,11.15,36.87c0.67,0.03,1.23,0.43,1.61,0.99c0.39,0.57,0.6,1.3,0.6,2.01c0,0.67-0.52,1.21-1.16,1.21h5.75
		c0.64,0,1.16-0.54,1.16-1.21C65.99,98.08,65.77,97.34,65.39,96.77L65.39,96.77z"/>
	<path class="st6" d="M23.52,42.74c-2.08,7.79-3.22,15.4-1.48,19.62c3.28,7.95,15.01,11.2,26.16,11.2s23.26-4.16,26.16-11.2
		c2.23-5.4-0.28-16.38-3.41-26.16c-7.09,0.54-14.81,2.16-21.68,5.19C38.56,46.1,28.55,44.26,23.52,42.74L23.52,42.74z"/>
	<g>
		<path class="st7" d="M70.95,36.2c-1.81,0.14-3.67,0.35-5.55,0.64c3.03,9.61,5.39,20.24,3.21,25.52
			c-2.67,6.47-13.12,10.51-23.45,11.12c1.01,0.05,2.02,0.08,3.03,0.08c11.15,0,23.26-4.16,26.16-11.2
			C76.59,56.96,74.08,45.98,70.95,36.2L70.95,36.2z"/>
	</g>
	<path class="st8" d="M60.88,45.29C51.11,41.72,48.31,32.7,37.76,32.2c-4.08-0.19-8.06,0.41-11.4,1.22
		c-3.52,10.4-6.77,23.02-4.32,28.93c3.28,7.95,15.01,11.2,26.16,11.2s23.26-4.16,26.16-11.2c1.47-3.55,0.88-9.52-0.58-15.96
		C69.52,46.69,64.52,46.62,60.88,45.29L60.88,45.29z"/>
	<g>
		<path class="st6" d="M73.78,46.39c-1.83,0.13-3.79,0.18-5.72,0.11c1.44,6.41,2.01,12.33,0.56,15.86
			c-2.67,6.47-13.12,10.51-23.45,11.12c1.01,0.05,2.02,0.08,3.03,0.08c11.15,0,23.26-4.16,26.16-11.2
			C75.83,58.81,75.24,52.84,73.78,46.39L73.78,46.39z"/>
	</g>
	<g>
		<path class="st7" d="M35.48,49.21l-4.32-1.42c-0.42-0.14-0.66-0.61-0.53-1.06L32,42.2c0.13-0.44,0.58-0.69,1.01-0.55l4.32,1.42
			c0.42,0.14,0.66,0.61,0.53,1.06l-1.35,4.53C36.36,49.1,35.91,49.35,35.48,49.21L35.48,49.21z"/>
		<path class="st7" d="M43.63,62.38L39.15,63c-0.44,0.06-0.84-0.26-0.9-0.73l-0.59-4.71c-0.06-0.46,0.25-0.89,0.69-0.95l4.48-0.62
			c0.44-0.06,0.84,0.26,0.9,0.73l0.59,4.71C44.38,61.89,44.07,62.31,43.63,62.38z"/>
		<path class="st7" d="M53.03,57.18l-2.26-4.11c-0.22-0.4-0.09-0.92,0.29-1.15l3.92-2.38c0.38-0.23,0.88-0.09,1.1,0.31l2.26,4.11
			c0.22,0.4,0.09,0.92-0.29,1.15l-3.92,2.38C53.74,57.72,53.25,57.58,53.03,57.18L53.03,57.18z"/>
	</g>
</g>
<g>
	<path class="st9" d="M95.7,67c-0.9,0-1.7-0.34-2.4-1.01c-0.7-0.67-1.06-1.49-1.06-2.45V36.86c0-0.93,0.35-1.74,1.06-2.42
		c0.7-0.69,1.5-1.03,2.4-1.03h10.9c0.99,0,1.82,0.34,2.47,1.03c0.66,0.69,0.98,1.5,0.98,2.42v6.24l-4.46,1.01v-4.51
		c0-0.45-0.15-0.85-0.46-1.2c-0.3-0.35-0.71-0.53-1.22-0.53h-5.47c-0.45,0-0.85,0.18-1.2,0.53c-0.35,0.35-0.53,0.75-0.53,1.2v21.22
		c0,0.51,0.18,0.93,0.53,1.25c0.35,0.32,0.75,0.48,1.2,0.48h5.47c0.51,0,0.92-0.16,1.22-0.48c0.3-0.32,0.46-0.74,0.46-1.25v-3.5
		l4.46-1.06v7.3c0,0.96-0.33,1.78-0.98,2.45c-0.66,0.67-1.48,1.01-2.47,1.01H95.7z"/>
	<path class="st9" d="M116.44,67c-0.99,0-1.82-0.34-2.5-1.03c-0.67-0.69-1.01-1.51-1.01-2.47V46.5c0-0.96,0.34-1.78,1.01-2.47
		c0.67-0.69,1.5-1.03,2.5-1.03h6.53c0.96,0,1.78,0.34,2.45,1.03c0.67,0.69,1.01,1.51,1.01,2.47V63.5c0,0.96-0.34,1.78-1.01,2.47
		c-0.67,0.69-1.49,1.03-2.45,1.03H116.44z M119.18,62.49h1.01c0.48,0,0.9-0.17,1.25-0.5c0.35-0.34,0.53-0.74,0.53-1.22V49.24
		c0-0.48-0.18-0.89-0.53-1.22c-0.35-0.34-0.77-0.5-1.25-0.5h-1.01c-0.48,0-0.89,0.17-1.22,0.5s-0.5,0.74-0.5,1.22v11.52
		c0,0.48,0.17,0.89,0.5,1.22S118.7,62.49,119.18,62.49z"/>
	<path class="st9" d="M132.86,67c-0.99,0-1.82-0.34-2.5-1.03c-0.67-0.69-1.01-1.51-1.01-2.47V46.5c0-0.96,0.34-1.78,1.01-2.47
		c0.67-0.69,1.5-1.03,2.5-1.03h6.53c0.96,0,1.78,0.34,2.47,1.03c0.69,0.69,1.03,1.51,1.03,2.47v5.23h-4.51v-2.5
		c0-0.48-0.18-0.89-0.53-1.22c-0.35-0.34-0.77-0.5-1.25-0.5h-1.01c-0.48,0-0.89,0.17-1.22,0.5s-0.5,0.74-0.5,1.22v11.52
		c0,0.48,0.17,0.89,0.5,1.22s0.74,0.5,1.22,0.5h1.01c0.48,0,0.9-0.17,1.25-0.5c0.35-0.34,0.53-0.74,0.53-1.22v-2.5h4.51v5.23
		c0,0.96-0.34,1.78-1.03,2.47c-0.69,0.69-1.51,1.03-2.47,1.03H132.86z"/>
	<path class="st9" d="M146.25,67V32.01l4.51-1.06V55l4.51-12h4.51l-4.51,12l4.51,12h-4.51l-2.26-6.05L150.76,67H146.25z"/>
	<path class="st9" d="M162.66,67V32.06l4.51-1.01V43h5.71l-1.06,4.51h-4.66V67H162.66z"/>
	<path class="st9" d="M175.91,67c-0.96,0-1.78-0.34-2.47-1.01c-0.69-0.67-1.03-1.5-1.03-2.5v-7.25c0-0.96,0.34-1.78,1.03-2.47
		c0.69-0.69,1.51-1.03,2.47-1.03h3.74c0.51,0,0.94-0.17,1.27-0.5s0.5-0.74,0.5-1.22v-1.78c0-0.48-0.17-0.89-0.5-1.22
		s-0.76-0.5-1.27-0.5h-5.18l1.01-4.51h6.96c0.96,0,1.78,0.34,2.47,1.03c0.69,0.69,1.03,1.51,1.03,2.47V67H175.91z M178.65,62.49
		h2.78v-5.23h-2.78c-0.48,0-0.89,0.17-1.22,0.5s-0.5,0.74-0.5,1.22v1.78c0,0.48,0.17,0.89,0.5,1.22S178.17,62.49,178.65,62.49z"/>
	<path class="st9" d="M188.82,36.57v-4.51l4.51-1.06v4.51L188.82,36.57z M188.92,67V44.06l4.51-1.06v24H188.92z"/>
	<path class="st9" d="M196.79,67V32.1l4.51-1.01V67H196.79z"/>
	<path class="st9" d="M208.6,67c-0.96,0-1.78-0.34-2.45-1.03c-0.67-0.69-1.01-1.51-1.01-2.47v-3.98h4.46v1.25
		c0,0.48,0.18,0.89,0.53,1.22c0.35,0.34,0.77,0.5,1.25,0.5h1.01c0.48,0,0.89-0.17,1.22-0.5s0.5-0.74,0.5-1.22v-1.78
		c0-0.48-0.17-0.89-0.5-1.22s-0.74-0.5-1.22-0.5h-3.79c-0.96,0-1.78-0.34-2.45-1.03c-0.67-0.69-1.01-1.51-1.01-2.47V46.5
		c0-0.96,0.34-1.78,1.01-2.47c0.67-0.69,1.49-1.03,2.45-1.03h6.58c0.96,0,1.78,0.34,2.45,1.03c0.67,0.69,1.01,1.51,1.01,2.47v3.98
		h-4.51v-1.25c0-0.48-0.17-0.89-0.5-1.22s-0.74-0.5-1.22-0.5h-1.01c-0.48,0-0.9,0.17-1.25,0.5c-0.35,0.34-0.53,0.74-0.53,1.22v1.78
		c0,0.48,0.18,0.89,0.53,1.22c0.35,0.34,0.77,0.5,1.25,0.5h3.79c0.96,0,1.78,0.34,2.45,1.03c0.67,0.69,1.01,1.51,1.01,2.47v7.44
		c-0.03,0.9-0.38,1.67-1.06,2.33c-0.67,0.66-1.47,0.98-2.4,0.98H208.6z"/>
	<path class="st9" d="M232.65,67c-0.96,0-1.78-0.34-2.45-1.01s-1.01-1.49-1.01-2.45V57.3l4.22-4.8l-4.22-4.51V36.86
		c0-0.16,0.02-0.29,0.05-0.38c0.06-0.86,0.42-1.59,1.08-2.18c0.66-0.59,1.43-0.89,2.33-0.89h10.94c0.9,0,1.66,0.3,2.3,0.89
		c0.64,0.59,1.01,1.32,1.1,2.18v6.62l-7.73,8.93l7.73,8.16V67l-10.75-11.52l-2.59,2.98v2.35c0,0.48,0.17,0.89,0.5,1.22
		s0.74,0.5,1.22,0.5h2.69l4.08,4.46H232.65z M236.44,49.05l6.14-6.96v-2.54c0-0.45-0.17-0.84-0.5-1.18s-0.74-0.5-1.22-0.5h-5.47
		c-0.48,0-0.89,0.17-1.22,0.5s-0.5,0.73-0.5,1.18v6.62L236.44,49.05z"/>
	<path class="st9" d="M262.07,67c-0.9,0-1.7-0.34-2.4-1.01c-0.7-0.67-1.06-1.49-1.06-2.45V36.86c0-0.93,0.35-1.74,1.06-2.42
		c0.7-0.69,1.5-1.03,2.4-1.03h10.9c0.99,0,1.82,0.34,2.47,1.03c0.66,0.69,0.98,1.5,0.98,2.42v6.24l-4.46,1.01v-4.51
		c0-0.45-0.15-0.85-0.46-1.2c-0.3-0.35-0.71-0.53-1.22-0.53h-5.47c-0.45,0-0.85,0.18-1.2,0.53c-0.35,0.35-0.53,0.75-0.53,1.2v21.22
		c0,0.51,0.17,0.93,0.53,1.25c0.35,0.32,0.75,0.48,1.2,0.48h5.47c0.51,0,0.92-0.16,1.22-0.48c0.3-0.32,0.46-0.74,0.46-1.25v-3.5
		l4.46-1.06v7.3c0,0.96-0.33,1.78-0.98,2.45c-0.66,0.67-1.48,1.01-2.47,1.01H262.07z"/>
	<path class="st9" d="M282.81,67c-0.99,0-1.82-0.34-2.5-1.03c-0.67-0.69-1.01-1.51-1.01-2.47V46.5c0-0.96,0.34-1.78,1.01-2.47
		c0.67-0.69,1.5-1.03,2.5-1.03h6.53c0.96,0,1.78,0.34,2.45,1.03c0.67,0.69,1.01,1.51,1.01,2.47V63.5c0,0.96-0.34,1.78-1.01,2.47
		c-0.67,0.69-1.49,1.03-2.45,1.03H282.81z M285.54,62.49h1.01c0.48,0,0.9-0.17,1.25-0.5c0.35-0.34,0.53-0.74,0.53-1.22V49.24
		c0-0.48-0.18-0.89-0.53-1.22c-0.35-0.34-0.77-0.5-1.25-0.5h-1.01c-0.48,0-0.89,0.17-1.22,0.5s-0.5,0.74-0.5,1.22v11.52
		c0,0.48,0.17,0.89,0.5,1.22S285.06,62.49,285.54,62.49z"/>
	<path class="st9" d="M299.22,67c-0.99,0-1.82-0.34-2.5-1.03c-0.67-0.69-1.01-1.51-1.01-2.47V46.5c0-0.96,0.34-1.78,1.01-2.47
		c0.67-0.69,1.5-1.03,2.5-1.03h6.53c0.96,0,1.78,0.34,2.47,1.03c0.69,0.69,1.03,1.51,1.03,2.47v5.23h-4.51v-2.5
		c0-0.48-0.18-0.89-0.53-1.22c-0.35-0.34-0.77-0.5-1.25-0.5h-1.01c-0.48,0-0.89,0.17-1.22,0.5c-0.34,0.34-0.5,0.74-0.5,1.22v11.52
		c0,0.48,0.17,0.89,0.5,1.22c0.34,0.34,0.74,0.5,1.22,0.5h1.01c0.48,0,0.9-0.17,1.25-0.5c0.35-0.34,0.53-0.74,0.53-1.22v-2.5h4.51
		v5.23c0,0.96-0.34,1.78-1.03,2.47c-0.69,0.69-1.51,1.03-2.47,1.03H299.22z"/>
	<path class="st9" d="M312.62,67V32.01l4.51-1.06V55l4.51-12h4.51l-4.51,12l4.51,12h-4.51l-2.26-6.05L317.13,67H312.62z"/>
	<path class="st9" d="M329.03,67V32.06l4.51-1.01V43h5.71l-1.06,4.51h-4.66V67H329.03z"/>
	<path class="st9" d="M342.28,67c-0.96,0-1.78-0.34-2.47-1.01c-0.69-0.67-1.03-1.5-1.03-2.5v-7.25c0-0.96,0.34-1.78,1.03-2.47
		c0.69-0.69,1.51-1.03,2.47-1.03h3.74c0.51,0,0.94-0.17,1.27-0.5c0.34-0.34,0.5-0.74,0.5-1.22v-1.78c0-0.48-0.17-0.89-0.5-1.22
		c-0.34-0.34-0.76-0.5-1.27-0.5h-5.18l1.01-4.51h6.96c0.96,0,1.78,0.34,2.47,1.03c0.69,0.69,1.03,1.51,1.03,2.47V67H342.28z
		 M345.02,62.49h2.78v-5.23h-2.78c-0.48,0-0.89,0.17-1.22,0.5c-0.34,0.34-0.5,0.74-0.5,1.22v1.78c0,0.48,0.17,0.89,0.5,1.22
		C344.13,62.32,344.54,62.49,345.02,62.49z"/>
	<path class="st9" d="M355.19,36.57v-4.51L359.7,31v4.51L355.19,36.57z M355.29,67V44.06L359.8,43v24H355.29z"/>
	<path class="st9" d="M363.16,67V32.1l4.51-1.01V67H363.16z"/>
	<path class="st9" d="M374.97,67c-0.96,0-1.78-0.34-2.45-1.03c-0.67-0.69-1.01-1.51-1.01-2.47v-3.98h4.46v1.25
		c0,0.48,0.18,0.89,0.53,1.22c0.35,0.34,0.77,0.5,1.25,0.5h1.01c0.48,0,0.89-0.17,1.22-0.5s0.5-0.74,0.5-1.22v-1.78
		c0-0.48-0.17-0.89-0.5-1.22s-0.74-0.5-1.22-0.5h-3.79c-0.96,0-1.78-0.34-2.45-1.03c-0.67-0.69-1.01-1.51-1.01-2.47V46.5
		c0-0.96,0.34-1.78,1.01-2.47c0.67-0.69,1.49-1.03,2.45-1.03h6.58c0.96,0,1.78,0.34,2.45,1.03c0.67,0.69,1.01,1.51,1.01,2.47v3.98
		h-4.51v-1.25c0-0.48-0.17-0.89-0.5-1.22s-0.74-0.5-1.22-0.5h-1.01c-0.48,0-0.9,0.17-1.25,0.5c-0.35,0.34-0.53,0.74-0.53,1.22v1.78
		c0,0.48,0.18,0.89,0.53,1.22c0.35,0.34,0.77,0.5,1.25,0.5h3.79c0.96,0,1.78,0.34,2.45,1.03c0.67,0.69,1.01,1.51,1.01,2.47v7.44
		c-0.03,0.9-0.38,1.67-1.06,2.33c-0.67,0.66-1.47,0.98-2.4,0.98H374.97z"/>
</g>
</svg>
